C:\My Captures\DataSMARTClinic\0004~001 ID\0004~aa~STRATO_01\Standing_STRATO_ID_01.mot
version=1
nRows=106
nColumns=10
inDegrees=yes

BTS OpenSim export

endheader
time	[P0]_force_vx	[P0]_force_vy	[P0]_force_vz	[P0]_force_px	[P0]_force_py	[P0]_force_pz	[P0]_torque_x	[P0]_torque_y	[P0]_torque_z
5.376000	-2.93250370	658.00567627	4.58797979	0.85574687	0.00205199	0.20170031	0.00468336	-0.94489664	-0.00028695
5.380000	-2.39195991	657.48437500	4.58443594	0.85573077	0.00205191	0.20169984	0.00424121	-0.85568911	-0.00025986
5.384000	-2.39456677	658.01031494	4.58459568	0.85597479	0.00205312	0.20169938	0.00423590	-0.85461867	-0.00025953
5.388000	-2.92443323	657.74334717	5.66392851	0.85562509	0.00205139	0.20167178	0.00403210	-0.81350100	-0.00024705
5.392000	-3.46108150	657.47875977	5.66723394	0.85569417	0.00205172	0.20173690	0.00447275	-0.90240347	-0.00027405
5.396000	-2.38516736	657.47985840	5.66046286	0.85531008	0.00204981	0.20173937	0.00447291	-0.90243679	-0.00027406
5.400000	-2.39583468	658.26611328	4.58467340	0.85546672	0.00205058	0.20176817	0.00424724	-0.85690612	-0.00026023
5.404000	-2.38986135	657.74401855	5.12259007	0.85543227	0.00205044	0.20165513	0.00365438	-0.73729348	-0.00022390
5.408000	-2.39453626	658.00415039	4.58459377	0.85534465	0.00204999	0.20170289	0.00424961	-0.85738480	-0.00026037
5.412000	-2.39113069	658.00000000	5.12254572	0.85513508	0.00204891	0.20185319	0.00507046	-1.02299702	-0.00031067
5.416000	-2.38984156	657.74005127	5.12258863	0.85522246	0.00204936	0.20178710	0.00366007	-0.73844081	-0.00022425
5.420000	-2.92439246	657.73510742	5.66392612	0.85499454	0.00204823	0.20180643	0.00404940	-0.81699145	-0.00024811
5.424000	-2.39112949	657.99975586	5.12254572	0.85492414	0.00204790	0.20172398	0.00507506	-1.02392316	-0.00031095
5.428000	-2.38904095	658.26135254	5.66070032	0.85483563	0.00204748	0.20167848	0.00448549	-0.90497440	-0.00027483
5.432000	-2.39111638	657.99725342	5.12266684	0.85450208	0.00204585	0.20159665	0.00367682	-0.74182141	-0.00022528
5.436000	-1.85318172	658.00213623	5.11916065	0.85473156	0.00204699	0.20159465	0.00463639	-0.93542045	-0.00028407
5.440000	-1.85656714	658.00231934	4.58120775	0.85473144	0.00204699	0.20157625	0.00381954	-0.77061588	-0.00023402
5.444000	-2.39709973	658.52136230	4.58475065	0.85453749	0.00204603	0.20157869	0.00426662	-0.86081654	-0.00026142
5.448000	-1.85574794	658.51989746	5.11931801	0.85434645	0.00204504	0.20172876	0.00464672	-0.93750393	-0.00028471
5.452000	-2.38903975	658.26110840	5.66070032	0.85462475	0.00204647	0.20154932	0.00449064	-0.90601313	-0.00027514
5.456000	-1.85107303	658.25976563	5.65731430	0.85443354	0.00204548	0.20168106	0.00405380	-0.81787968	-0.00024838
5.460000	-1.86044061	658.78375244	4.58144522	0.85425812	0.00204467	0.20151561	0.00382940	-0.77260458	-0.00023463
5.464000	-2.38899875	658.25286865	5.66069794	0.85399473	0.00204331	0.20168388	0.00450827	-0.90957111	-0.00027622
5.468000	-2.39501166	658.78295898	5.12278366	0.85444915	0.00204561	0.20153329	0.00508582	-1.02609527	-0.00031161
5.472000	-2.39499068	658.77868652	5.12278223	0.85402906	0.00204352	0.20153598	0.00509608	-1.02816582	-0.00031224
5.476000	-2.39239478	658.25494385	5.12262297	0.85399473	0.00204335	0.20153444	0.00422234	-0.85188353	-0.00025870
5.480000	-1.85574532	658.51934814	5.11931801	0.85392487	0.00204303	0.20147055	0.00465520	-0.93921423	-0.00028522
5.484000	-1.85835230	659.04534912	5.11947775	0.85416996	0.00204424	0.20147027	0.00464922	-0.93800807	-0.00028486
5.488000	-1.32247281	658.78216553	4.57805920	0.85385633	0.00204267	0.20151821	0.00426969	-0.86143631	-0.00026160
5.492000	-1.85703313	658.77917480	5.11939669	0.85362744	0.00204157	0.20140764	0.00466201	-0.94058895	-0.00028564
5.496000	-1.85184133	657.73168945	5.11907864	0.85376763	0.00204223	0.20153467	0.00465948	-0.94007820	-0.00028549
5.500000	-1.85104978	658.25506592	5.65731287	0.85359138	0.00204139	0.20142545	0.00407480	-0.82211512	-0.00024966
5.504000	-1.86249554	658.51550293	4.04341030	0.85350436	0.00204095	0.20143649	0.00443307	-0.89439839	-0.00027161
5.508000	-1.85782146	658.25537109	4.58128452	0.85359114	0.00204140	0.20138867	0.00384300	-0.77534854	-0.00023546
5.512000	-1.84636605	657.99310303	6.19530869	0.85367966	0.00204180	0.20150764	0.00489270	-0.98713189	-0.00029978
5.516000	-1.85103977	658.25305176	5.65731239	0.85338187	0.00204035	0.20142625	0.00408047	-0.82325953	-0.00025001
5.520000	-1.85572469	658.51519775	5.11931658	0.85350460	0.00204094	0.20147325	0.00466546	-0.94128549	-0.00028585
5.524000	-1.32116354	658.51800537	4.57797861	0.85352284	0.00204104	0.20145476	0.00427632	-0.86277318	-0.00026201
5.528000	-1.85442603	658.25317383	5.11923695	0.85338175	0.00204035	0.20140786	0.00466800	-0.94179767	-0.00028601
5.532000	-1.85570347	658.51092529	5.11931515	0.85308427	0.00203886	0.20147593	0.00467573	-0.94335693	-0.00028648
5.536000	-1.85440636	658.24920654	5.11923599	0.85317218	0.00203928	0.20153973	0.00467403	-0.94301432	-0.00028638
5.540000	-1.85780060	658.25115967	4.58128309	0.85317063	0.00203931	0.20139135	0.00385215	-0.77719456	-0.00023602
5.544000	-1.85570347	658.51092529	5.11931515	0.85308427	0.00203886	0.20147593	0.00467573	-0.94335693	-0.00028648
5.548000	-1.85570347	658.51092529	5.11931515	0.85308427	0.00203886	0.20147593	0.00467573	-0.94335693	-0.00028648
5.552000	-1.85440516	658.24896240	5.11923599	0.85296130	0.00203827	0.20141056	0.00467827	-0.94386989	-0.00028664
5.556000	-1.85440516	658.24896240	5.11923599	0.85296130	0.00203827	0.20141056	0.00467827	-0.94386989	-0.00028664
5.560000	-1.85700107	658.77270508	5.11939478	0.85299647	0.00203844	0.20141220	0.00467743	-0.94369930	-0.00028659
5.564000	-1.85699105	658.77069092	5.11939430	0.85278714	0.00203741	0.20141301	0.00468254	-0.94473004	-0.00028690
5.568000	-1.85360479	658.77056885	5.65746927	0.85278726	0.00203740	0.20143138	0.00409659	-0.82651186	-0.00025100
5.572000	-1.31763363	658.51336670	5.11592960	0.85289186	0.00203794	0.20134671	0.00423593	-0.85462356	-0.00025954
5.576000	-1.85699975	658.77246094	5.11939478	0.85278571	0.00203744	0.20128313	0.00468166	-0.94455415	-0.00028685
5.580000	-1.31892240	658.77337646	5.11600876	0.85280550	0.00203750	0.20141289	0.00423867	-0.85517693	-0.00025970
5.584000	-1.85568142	658.50646973	5.11931419	0.85245317	0.00203577	0.20134951	0.00469024	-0.94628352	-0.00028737
5.588000	-1.85099769	658.24456787	5.65730953	0.85254097	0.00203618	0.20143163	0.00551142	-1.11196220	-0.00033769
5.592000	-1.31164062	657.98730469	5.65384531	0.85264564	0.00203672	0.20136529	0.00365641	-0.73770261	-0.00022403
5.596000	-1.85568142	658.50646973	5.11931419	0.85245317	0.00203577	0.20134951	0.00469024	-0.94628352	-0.00028737
5.600000	-1.31628466	658.24121094	5.11584711	0.85213864	0.00203415	0.20154686	0.00425621	-0.85871607	-0.00026078
5.604000	-1.31502569	657.98718262	5.11576986	0.85243458	0.00203572	0.20121767	0.00424582	-0.85662049	-0.00026014
5.608000	-1.31163061	657.98529053	5.65384483	0.85243607	0.00203568	0.20136610	0.00507025	-1.02295303	-0.00031065
5.612000	-1.31629443	658.24316406	5.11584759	0.85213876	0.00203419	0.20141582	0.00425494	-0.85846049	-0.00026070
5.616000	-1.31629443	658.24316406	5.11584759	0.85213876	0.00203419	0.20141582	0.00425494	-0.85846049	-0.00026070
5.620000	-1.31511807	657.98120117	5.11576891	0.85222477	0.00203460	0.20148067	0.00512814	-1.03463387	-0.00031420
5.624000	-1.31370854	657.72143555	5.11568928	0.85231256	0.00203505	0.20141336	0.00425068	-0.85760134	-0.00026044
5.628000	-1.31499600	657.98120117	5.11576843	0.85201532	0.00203360	0.20135039	0.00425732	-0.85893977	-0.00026085
5.632000	-1.31368732	657.71716309	5.11568785	0.85189170	0.00203297	0.20141606	0.00426096	-0.85967535	-0.00026107
5.636000	-1.31498599	657.97918701	5.11576748	0.85201520	0.00203356	0.20148149	0.00425859	-0.85919553	-0.00026092
5.640000	-1.31110144	657.19543457	5.11552954	0.85206544	0.00203383	0.20141360	0.00425671	-0.85881644	-0.00026081
5.644000	-0.77703941	657.98187256	5.11238289	0.85203362	0.00203365	0.20148137	0.00468956	-0.94614673	-0.00028733
5.648000	-1.31028175	657.71313477	5.65376186	0.85168207	0.00203188	0.20156643	0.00509257	-1.02745605	-0.00031202
5.652000	-1.31627476	658.23919678	5.11584663	0.85192913	0.00203311	0.20154768	0.00426132	-0.85974753	-0.00026109
5.656000	-0.78093398	658.76757813	5.11262131	0.85198355	0.00203342	0.20141816	0.00469000	-0.94623542	-0.00028736
5.660000	-1.31757224	658.50097656	5.11592627	0.85184169	0.00203270	0.20148389	0.00426284	-0.86005306	-0.00026118
5.664000	-1.31159103	657.97729492	5.65384245	0.85201669	0.00203352	0.20162992	0.00508413	-1.02575457	-0.00031151
5.668000	-1.31496632	657.97521973	5.11576653	0.85180557	0.00203248	0.20161340	0.00426497	-0.86048305	-0.00026132
5.672000	-1.31756341	658.49920654	5.11592531	0.85184312	0.00203267	0.20161383	0.00426406	-0.86029905	-0.00026126
5.676000	-1.31286883	658.23504639	5.65392065	0.85171962	0.00203203	0.20169793	0.00509282	-1.02750742	-0.00031204
5.680000	-1.31287980	658.23724365	5.65392113	0.85193062	0.00203307	0.20169605	0.00508710	-1.02635300	-0.00031169
5.684000	-1.31755352	658.49719238	5.11592484	0.85184300	0.00203263	0.20174481	0.00426532	-0.86055452	-0.00026134
5.688000	-1.31885099	658.75897217	5.11600447	0.85175568	0.00203221	0.20168097	0.00426683	-0.86085963	-0.00026143
5.692000	-1.31755352	658.49719238	5.11592484	0.85184300	0.00203263	0.20174481	0.00426532	-0.86055452	-0.00026134
5.696000	-1.31494665	657.97125244	5.11576509	0.85159588	0.00203140	0.20174532	0.00427135	-0.86177057	-0.00026171
5.700000	-1.32222760	658.75732422	4.57805061	0.85175693	0.00203218	0.20179246	0.00485106	-0.97873151	-0.00029723
5.704000	-1.31494784	657.97149658	5.11576509	0.85180682	0.00203241	0.20187454	0.00426746	-0.86098492	-0.00026147
5.708000	-1.32222760	658.75732422	4.57805061	0.85175693	0.00203218	0.20179246	0.00485106	-0.97873151	-0.00029723
5.712000	-1.31882250	658.75323486	5.11600256	0.85154760	0.00203110	0.20194261	0.00427443	-0.86239159	-0.00026189
5.716000	-1.32012117	659.01525879	5.11608219	0.85167110	0.00203169	0.20200773	0.00427205	-0.86191142	-0.00026175
5.720000	-1.31884336	658.75744629	5.11600399	0.85196781	0.00203318	0.20193991	0.00426416	-0.86032081	-0.00026127
5.724000	-1.85222745	658.49267578	5.65738487	0.85182619	0.00203250	0.20189324	0.00553398	-1.11651480	-0.00033907
5.728000	-1.31752503	658.49145508	5.11592340	0.85163486	0.00203151	0.20200655	0.00427292	-0.86208707	-0.00026180
5.732000	-1.31754625	658.49572754	5.11592436	0.85205519	0.00203360	0.20200385	0.00426265	-0.86001545	-0.00026117
5.736000	-1.31883490	658.75573730	5.11600351	0.85196918	0.00203315	0.20206979	0.00426538	-0.86056674	-0.00026134
5.740000	-1.85820079	659.01477051	5.11946821	0.85186350	0.00203265	0.20200595	0.00470920	-0.95010889	-0.00028853
5.744000	-1.85429657	658.22705078	5.11922932	0.85170382	0.00203184	0.20207067	0.00471354	-0.95098531	-0.00028880
5.748000	-1.31754625	658.49572754	5.11592436	0.85205519	0.00203360	0.20200385	0.00426265	-0.86001545	-0.00026117
5.752000	-1.31544876	658.75555420	5.65407848	0.85196930	0.00203315	0.20208818	0.00508984	-1.02690661	-0.00031186
5.756000	-1.31493914	657.96972656	5.11576462	0.85180819	0.00203237	0.20200457	0.00426868	-0.86123109	-0.00026154
5.760000	-1.31752622	658.49169922	5.11592340	0.85184574	0.00203252	0.20213567	0.00426903	-0.86130202	-0.00026156
5.764000	-0.78087711	658.75610352	5.11261797	0.85177672	0.00203220	0.20207156	0.00470308	-0.94887483	-0.00028816
5.768000	-1.85560489	658.49102783	5.11930943	0.85182738	0.00203247	0.20200479	0.00471007	-0.95028454	-0.00028859
5.772000	-1.85300899	657.96728516	5.11915016	0.85200083	0.00203329	0.20213391	0.00470674	-0.94961345	-0.00028838
5.776000	-1.31363189	657.70599365	5.11568451	0.85189557	0.00203275	0.20219977	0.00426843	-0.86118156	-0.00026153
5.780000	-1.85769165	658.22918701	4.58127642	0.85191321	0.00203288	0.20205146	0.00529190	-1.06767261	-0.00032424
5.784000	-1.85171187	657.70556641	5.11907101	0.85208833	0.00203370	0.20219800	0.00470505	-0.94927311	-0.00028828
5.788000	-1.85040319	657.44152832	5.11899042	0.85196471	0.00203307	0.20226404	0.00470853	-0.94997424	-0.00028849
5.792000	-1.84701693	657.44140625	5.65706587	0.85196483	0.00203307	0.20228246	0.00553296	-1.11630738	-0.00033901
5.796000	-1.32171237	657.97052002	4.03985834	0.85222995	0.00203440	0.20222622	0.00402157	-0.81137627	-0.00024640
